# xmcd
#
# Track frame offsets:
#	182
#	16435
#	32462
#	46987
#	66772
#	79940
#	96810
#	110760
#	123172
#	133570
#	149710
#	161672
#
# Disc length: 2383 seconds
#
# Revision: 5
# Processed by: cddbd v1.5.2PL0 Copyright (c) Steve Scherf et al.
# Submitted via: audiograbber 1.83.01
#
DISCID=a3094d0c
DTITLE=Various Artist - New Country - July 1994
DYEAR=1994
DGENRE=Country
TTITLE0=Billy Dean - Cowboy Band
TTITLE1=Dawn Sears - Runaway Train
TTITLE2=Tracy Lawrence - Back To Back
TTITLE3=The Band - Remedy
TTITLE4=Pat McLaughlin - Try The Love
TTITLE5=Townes Van Zandt - Little Willie The Gambler
TTITLE6=John Gorka - Good Noise
TTITLE7=Linda Davis - Love Didn't Do It
TTITLE8=Big Sandy And His Fly-Rite Boys - Someone Like You
TTITLE9=Mark Collie - It Is No Secret
TTITLE10=Neal McCoy - Mudslide
TTITLE11=Jerry Jeff Walker - What I Like About Texas
EXTD=
EXTT0=
EXTT1=
EXTT2=
EXTT3=
EXTT4=
EXTT5=
EXTT6=
EXTT7=
EXTT8=
EXTT9=
EXTT10=
EXTT11=
PLAYORDER=
